<svg xmlns="http://www.w3.org/2000/svg" width="48" height="48" viewBox="0 0 24 24">
  <defs>
    <style>
      .cls-1 {
        fill: #9fafc1;
        fill-rule: evenodd;
      }
    </style>
  </defs>
  <path id="facebook" class="cls-1" d="M163.251,412H148.744a2.71,2.71,0,0,0-2.675,2.743v14.871a2.71,2.71,0,0,0,2.675,2.743H155.9l0.012-7.274h-1.843a0.441,0.441,0,0,1-.435-0.445l-0.009-2.344a0.44,0.44,0,0,1,.435-0.448h1.84v-2.266c0-2.629,1.567-4.061,3.855-4.061h1.877a0.442,0.442,0,0,1,.436.446v1.977a0.441,0.441,0,0,1-.435.446h-1.153a1.259,1.259,0,0,0-1.484,1.5v1.961h2.734a0.441,0.441,0,0,1,.431.5l-0.27,2.345a0.441,0.441,0,0,1-.432.394h-2.451L159,432.354h4.256a2.71,2.71,0,0,0,2.676-2.743V414.74A2.71,2.71,0,0,0,163.251,412Z" transform="translate(-144 -410.172)"/>
</svg>
