<svg xmlns="http://www.w3.org/2000/svg" width="48" height="48" viewBox="0 0 24 24">
  <defs>
    <style>
      .cls-1 {
        fill: #9fafc1;
        fill-rule: evenodd;
      }
    </style>
  </defs>
  <path id="linkedin" class="cls-1" d="M164.2,498.748H147.936a1.82,1.82,0,0,0-1.8,1.842v16.673a1.82,1.82,0,0,0,1.8,1.842H164.2a1.82,1.82,0,0,0,1.8-1.842V500.59A1.82,1.82,0,0,0,164.2,498.748Zm-11.917,17.578a0.53,0.53,0,0,1-.523.536h-2.225a0.531,0.531,0,0,1-.524-0.536v-9.564a0.53,0.53,0,0,1,.524-0.535h2.225a0.529,0.529,0,0,1,.523.535v9.564Zm-1.636-11a2.168,2.168,0,1,1,2.115-2.167A2.141,2.141,0,0,1,150.649,505.326Zm13.264,11.043a0.487,0.487,0,0,1-.48.493h-2.388a0.487,0.487,0,0,1-.48-0.493v-4.486c0-.669.191-2.932-1.706-2.932-1.471,0-1.77,1.549-1.83,2.245v5.173a0.488,0.488,0,0,1-.481.493h-2.309a0.488,0.488,0,0,1-.481-0.493V506.72a0.488,0.488,0,0,1,.481-0.493h2.309a0.487,0.487,0,0,1,.481.493v0.834a3.252,3.252,0,0,1,3.083-1.487c3.824,0,3.8,3.662,3.8,5.674v4.628h0Z" transform="translate(-144.063 -496.922)"/>
</svg>
