<svg xmlns="http://www.w3.org/2000/svg" width="48" height="48" viewBox="0 0 24 24">
  <defs>
    <style>
      .cls-1 {
        fill: #9fafc1;
        fill-rule: evenodd;
      }
    </style>
  </defs>
  <path id="twitter" class="cls-1" d="M165.54,458.577a7.768,7.768,0,0,1-1.368.474,4.414,4.414,0,0,0,1.126-1.843h0a0.226,0.226,0,0,0-.327-0.268h0a7.778,7.778,0,0,1-2.093.888,0.529,0.529,0,0,1-.131.017,0.55,0.55,0,0,1-.368-0.144,4.211,4.211,0,0,0-2.831-1.1,4.45,4.45,0,0,0-1.356.215,4.214,4.214,0,0,0-2.8,3.069,4.81,4.81,0,0,0-.1,1.619,0.164,0.164,0,0,1-.039.124,0.159,0.159,0,0,1-.118.055h-0.015a11.141,11.141,0,0,1-7.716-4.233h0a0.22,0.22,0,0,0-.367.029h0a4.488,4.488,0,0,0,.7,5.345,3.8,3.8,0,0,1-.977-0.389h0a0.224,0.224,0,0,0-.333.2h0a4.413,4.413,0,0,0,2.5,4.056l-0.092,0a3.749,3.749,0,0,1-.721-0.071h0a0.228,0.228,0,0,0-.256.3h0a4.329,4.329,0,0,0,3.39,3,7.754,7.754,0,0,1-4.424,1.38h-0.5a0.33,0.33,0,0,0-.321.254,0.354,0.354,0,0,0,.162.384,11.518,11.518,0,0,0,5.905,1.635,11.649,11.649,0,0,0,5.046-1.1,11.169,11.169,0,0,0,3.692-2.841,12.747,12.747,0,0,0,3.03-8.145v-0.066a0.758,0.758,0,0,1,.272-0.583,8.562,8.562,0,0,0,1.7-1.918h0a0.228,0.228,0,0,0-.277-0.338h0Z" transform="translate(-143.938 -453.078)"/>
</svg>
